<svg width="24" height="24" viewBox="0 0 24 24" fill="none" xmlns="http://www.w3.org/2000/svg">
<path d="M16.7867 8.21333L12.8467 12.0867C12.4217 11.8819 11.938 11.834 11.4811 11.9514C11.0241 12.0688 10.6234 12.344 10.3497 12.7282C10.0761 13.1125 9.947 13.5811 9.9854 14.0513C10.0238 14.5215 10.2272 14.963 10.5596 15.2977C10.892 15.6325 11.332 15.839 11.8019 15.8807C12.2718 15.9224 12.7413 15.7967 13.1275 15.5257C13.5137 15.2547 13.7917 14.856 13.9123 14.3999C14.0329 13.9438 13.9884 13.4598 13.7867 13.0333L17.7334 9.16L16.7867 8.21333Z" fill="black"/>
<path d="M12 2.83333C9.90182 2.83093 7.84677 3.42902 6.07756 4.55698C4.30835 5.68494 2.89888 7.29564 2.01562 9.19886C1.13235 11.1021 0.812192 13.2183 1.09294 15.2976C1.3737 17.377 2.24363 19.3325 3.60001 20.9333L3.80001 21.1667H20.2L20.4 20.9333C21.7564 19.3325 22.6263 17.377 22.9071 15.2976C23.1878 13.2183 22.8677 11.1021 21.9844 9.19886C21.1011 7.29564 19.6917 5.68494 17.9225 4.55698C16.1533 3.42902 14.0982 2.83093 12 2.83333ZM19.56 19.8333H4.44001C3.2438 18.3365 2.52184 16.5165 2.36668 14.6067H4.66668V13.2733H2.36668C2.47833 11.1565 3.28699 9.136 4.66668 7.52667L6.30001 9.16L7.24001 8.22L5.62001 6.58C7.20886 5.17569 9.21769 4.33653 11.3333 4.19333V6.52667H12.6667V4.2C15.0037 4.36948 17.1991 5.38375 18.843 7.05341C20.4869 8.72308 21.4669 10.934 21.6 13.2733H19.28V14.6067H21.6333C21.4782 16.5165 20.7562 18.3365 19.56 19.8333Z" fill="black"/>
</svg>
