<svg width="24" height="24" viewBox="0 0 24 24" fill="none" xmlns="http://www.w3.org/2000/svg">
<g clip-path="url(#clip0_27_117)">
<path d="M0 22.4312C0 22.6185 0.105469 22.7902 0.316406 22.9463C0.527344 23.1024 0.851562 23.2312 1.28906 23.3327C1.72656 23.4341 2.17578 23.5278 2.63672 23.6137C3.09766 23.6995 3.6875 23.7659 4.40625 23.8127C5.125 23.8595 5.75 23.8946 6.28125 23.918C6.8125 23.9415 7.49609 23.961 8.33203 23.9766C9.16797 23.9922 9.80078 24 10.2305 24H13.7695L15.668 23.9766L17.7188 23.918L19.5938 23.8127L21.3633 23.6137L22.7109 23.3327L23.6836 22.9463L24 22.4312C23.9688 21.0576 23.1094 19.8439 21.4219 18.7902C19.7344 17.7366 17.5938 17.038 15 16.6946V15.922C15.8125 15.5629 16.5156 15.0556 17.1094 14.4C17.7031 13.7444 18.1719 12.9756 18.5156 12.0937C18.8594 11.2117 19.1094 10.2673 19.2656 9.26049C19.4219 8.25366 19.5 7.16488 19.5 5.99415C19.5 4.99512 19.3047 4.10537 18.9141 3.32488C18.5234 2.54439 17.9844 1.9161 17.2969 1.44C16.6094 0.963902 15.8203 0.604878 14.9297 0.362927C14.0391 0.120976 13.0625 0 12 0C10.9375 0 9.96094 0.120976 9.07031 0.362927C8.17969 0.604878 7.39062 0.963902 6.70312 1.44C6.01562 1.9161 5.47656 2.54439 5.08594 3.32488C4.69531 4.10537 4.5 4.99512 4.5 5.99415C4.5 11.4576 6 14.7824 9 15.9688V16.6946C6.40625 17.038 4.26562 17.7366 2.57812 18.7902C0.890625 19.8439 0.03125 21.0576 0 22.4312Z" fill="black"/>
</g>
<defs>
<clipPath id="clip0_27_117">
<rect width="24" height="24" fill="white" transform="matrix(-1 0 0 1 24 0)"/>
</clipPath>
</defs>
</svg>
